<?xml version="1.0" encoding="utf-8"?>
<!-- Generator: Adobe Illustrator 23.0.6, SVG Export Plug-In . SVG Version: 6.00 Build 0)  -->
<svg version="1.1" xmlns="http://www.w3.org/2000/svg" xmlns:xlink="http://www.w3.org/1999/xlink" x="0px" y="0px"
	 viewBox="0 0 750 500" style="enable-background:new 0 0 750 500;" xml:space="preserve">
<style type="text/css">
	.st0{fill:#DBE8F0;}
	.st1{opacity:0.5;}
	.st2{fill:#FFFFFF;}
	.st3{fill:#7B1FA2;}
	.st4{fill:#FFA726;}
	.st5{fill:url(#SVGID_1_);}
	.st6{fill:url(#SVGID_2_);}
	.st7{opacity:0.8;fill:url(#SVGID_3_);}
	.st8{opacity:0.8;fill:url(#SVGID_4_);}
	.st9{opacity:0.8;fill:url(#SVGID_5_);}
	.st10{opacity:0.8;fill:url(#SVGID_6_);}
	.st11{opacity:0.8;fill:url(#SVGID_7_);}
	.st12{opacity:0.8;fill:url(#SVGID_8_);}
	.st13{fill:#CBDFEF;}
	.st14{opacity:0.8;fill:url(#SVGID_9_);}
	.st15{fill:url(#SVGID_10_);}
	.st16{fill:#809297;}
	.st17{fill:url(#XMLID_11_);}
	.st18{fill:#8A9EA2;}
	.st19{fill:url(#XMLID_12_);}
	.st20{fill:#92A7AC;}
	.st21{fill:url(#XMLID_13_);}
	.st22{opacity:0.1;fill:#FFFFFF;}
	.st23{fill:#FDC870;}
	.st24{fill:url(#SVGID_11_);}
	.st25{fill:url(#XMLID_14_);}
	.st26{fill:url(#SVGID_12_);}
	.st27{fill:url(#SVGID_13_);}
	.st28{fill:url(#SVGID_14_);}
	.st29{opacity:0.7;fill:url(#SVGID_15_);}
	.st30{opacity:0.7;fill:url(#SVGID_16_);}
	.st31{fill:url(#SVGID_17_);}
	.st32{opacity:0.8;fill:url(#SVGID_18_);}
	.st33{fill:url(#SVGID_19_);}
	.st34{fill:#FFB300;}
	.st35{fill:#FFA000;}
	.st36{fill:#FFCA28;}
	.st37{opacity:0.7;fill:url(#SVGID_20_);}
	.st38{opacity:0.7;fill:url(#SVGID_21_);}
	.st39{fill:url(#SVGID_22_);}
	.st40{opacity:0.8;fill:url(#SVGID_23_);}
	.st41{fill:url(#SVGID_24_);}
	.st42{fill:#D32F2F;}
	.st43{opacity:0.8;fill:url(#SVGID_25_);}
	.st44{fill:#EF5350;}
	.st45{fill:none;stroke:#FFFFFF;stroke-width:1.0404;stroke-miterlimit:10;}
	.st46{opacity:0.7;fill:url(#SVGID_26_);}
	.st47{opacity:0.7;fill:url(#SVGID_27_);}
	.st48{fill:url(#SVGID_28_);}
	.st49{fill:#25284C;}
	.st50{fill:#111638;}
	.st51{fill:#F5F5F5;}
	.st52{fill:#7B92B9;}
	.st53{fill:#6A7EA2;}
	.st54{fill:none;stroke:#FFFFFF;stroke-width:0.7521;stroke-miterlimit:10;}
	.st55{opacity:0.8;fill:url(#SVGID_29_);}
	.st56{opacity:0.8;fill:url(#SVGID_30_);}
	.st57{opacity:0.8;fill:url(#SVGID_31_);}
	.st58{fill:url(#SVGID_32_);}
	.st59{fill:url(#SVGID_33_);}
	.st60{opacity:0.7;fill:url(#SVGID_34_);}
	.st61{fill:url(#SVGID_35_);}
	.st62{fill:none;stroke:#FFFFFF;stroke-width:1.0404;stroke-linecap:round;stroke-linejoin:round;stroke-miterlimit:10;}
	.st63{fill:#FFEE58;}
	.st64{fill:none;stroke:#FFFFFF;stroke-width:0.5202;stroke-linecap:round;stroke-linejoin:round;stroke-miterlimit:10;}
	.st65{fill:url(#SVGID_36_);}
	.st66{fill:#222221;}
</style>
<g id="Background">
</g>
<g id="Object">
	<g>
		<linearGradient id="SVGID_1_" gradientUnits="userSpaceOnUse" x1="355.4234" y1="381.1379" x2="355.4234" y2="71.587">
			<stop  offset="1.860120e-03" style="stop-color:#AC24B9"/>
			<stop  offset="1" style="stop-color:#2E2142"/>
		</linearGradient>
		<path class="st5" d="M523.45,305c-0.49,2.83-1.06,5.64-1.71,8.44c-0.5,2.13-1.04,4.25-1.62,6.35c-3.22,11.6-7.8,23.19-14.13,33.44
			c-6.46,10.49-14.76,19.6-25.32,25.94c-5.68,3.42-11.77,5.89-18.1,7.74h-215.6c-20.85-11.32-39.15-31.24-35.17-54.57
			c3.46-20.3,6.71-40.55-0.41-59.31c-5.18-13.61-15.37-24.8-21.11-38.19c-14.21-33.22,3.66-63.3,30.16-81.75
			c0.96-0.67,1.93-1.32,2.91-1.96c0.23-0.15,0.47-0.3,0.7-0.45c1.08-0.69,2.15-1.41,3.2-2.14c2.28-1.59,4.48-3.26,6.64-5.02h0.01
			c1.62-1.32,3.21-2.67,4.78-4.07c0.37-0.32,0.75-0.65,1.11-0.99c2.16-1.94,4.28-3.94,6.37-5.98c1.1-1.07,2.19-2.16,3.28-3.25
			c8.48-8.51,16.66-17.42,25.62-25.18c8.54-7.39,17.79-13.74,28.69-17.7c6.81-2.47,13.81-4.2,20.88-5.18
			c27.95-3.93,57.03,3.52,79.72,20.9c1.11,0.85,2.22,1.73,3.32,2.63c11.73,9.59,22.52,21.82,27.29,35.94
			c6.01,17.77,14.87,34.92,31.03,45.49c13.33,8.71,25.95,14.49,36.57,27.15c3.83,4.56,7.13,9.37,9.94,14.38
			c2.29,4.09,4.26,8.3,5.92,12.62c2.21,5.75,3.87,11.68,5.03,17.73C526.41,273.33,526.17,289.37,523.45,305z"/>
		<linearGradient id="SVGID_2_" gradientUnits="userSpaceOnUse" x1="202.4424" y1="378.076" x2="185.5489" y2="271.6464">
			<stop  offset="1.860120e-03" style="stop-color:#AC24B9"/>
			<stop  offset="1" style="stop-color:#2E2142"/>
		</linearGradient>
		<path class="st6" d="M187.88,341.03c-0.33,5.89,0.02,12.09,2.97,17.2c2.48,4.29,8.29,7.58,12.31,4.68
			c3.05-2.2,3.27-6.72,2.25-10.34c-1.02-3.62-2.96-7.02-3.24-10.77c-0.44-5.9,6.55-21.03-3.94-21.71
			C188.77,319.47,188.2,335.2,187.88,341.03z"/>
		<g>
			<linearGradient id="SVGID_3_" gradientUnits="userSpaceOnUse" x1="266.0878" y1="380.315" x2="269.31" y2="336.0837">
				<stop  offset="0" style="stop-color:#FFFFFF;stop-opacity:0"/>
				<stop  offset="1" style="stop-color:#662D8D"/>
			</linearGradient>
			<ellipse class="st7" cx="267.43" cy="361.91" rx="20.34" ry="8.01"/>
			<linearGradient id="SVGID_4_" gradientUnits="userSpaceOnUse" x1="369.8429" y1="381.3714" x2="373.065" y2="337.1403">
				<stop  offset="0" style="stop-color:#FFFFFF;stop-opacity:0"/>
				<stop  offset="1" style="stop-color:#662D8D"/>
			</linearGradient>
			<ellipse class="st8" cx="371.18" cy="362.96" rx="20.34" ry="8.01"/>
			<linearGradient id="SVGID_5_" gradientUnits="userSpaceOnUse" x1="377.9027" y1="333.4867" x2="233.7844" y2="331.7291">
				<stop  offset="0" style="stop-color:#FFFFFF;stop-opacity:0"/>
				<stop  offset="1" style="stop-color:#662D8D"/>
			</linearGradient>
			<polygon class="st9" points="253.93,326.63 272.32,326.63 313.2,345.67 307.85,357.72 327,357.72 368.58,331.93 317.67,314.12 
				287.42,307.3 			"/>
			<linearGradient id="SVGID_6_" gradientUnits="userSpaceOnUse" x1="336.1702" y1="189.1313" x2="258.253" y2="276.422">
				<stop  offset="0" style="stop-color:#FFFFFF;stop-opacity:0"/>
				<stop  offset="1" style="stop-color:#662D8D"/>
			</linearGradient>
			<rect x="257.72" y="187.51" class="st10" width="100.79" height="66.12"/>
			<linearGradient id="SVGID_7_" gradientUnits="userSpaceOnUse" x1="574.8359" y1="320.1737" x2="409.3027" y2="320.1737">
				<stop  offset="0" style="stop-color:#FFFFFF;stop-opacity:0"/>
				<stop  offset="1" style="stop-color:#662D8D"/>
			</linearGradient>
			<path class="st11" d="M523.45,287.11V305c-0.49,2.83-1.06,5.64-1.71,8.44c-0.5,2.13-1.04,4.25-1.62,6.35
				c-3.22,11.6-7.8,23.19-14.13,33.44h-52.68v-66.12H523.45z"/>
			<linearGradient id="SVGID_8_" gradientUnits="userSpaceOnUse" x1="550.6206" y1="270.5537" x2="374.2176" y2="270.5537">
				<stop  offset="0" style="stop-color:#FFFFFF;stop-opacity:0"/>
				<stop  offset="1" style="stop-color:#662D8D"/>
			</linearGradient>
			<path class="st12" d="M523.45,258.01V305c-0.49,2.83-1.06,5.64-1.71,8.44H374.76v-85.78H512.5c2.29,4.09,4.26,8.3,5.92,12.62
				C520.63,246.03,522.29,251.96,523.45,258.01z"/>
			<g>
				<path class="st13" d="M407.73,292.58v-47.2H302.22v47.2l0,0c0,7.8,5.15,15.59,15.45,21.54c20.6,11.9,54.01,11.9,74.61,0
					C402.58,308.17,407.73,300.37,407.73,292.58z"/>
				<linearGradient id="SVGID_9_" gradientUnits="userSpaceOnUse" x1="347.1046" y1="284.2074" x2="426.4236" y2="284.2074">
					<stop  offset="0" style="stop-color:#FFFFFF;stop-opacity:0"/>
					<stop  offset="1" style="stop-color:#662D8D"/>
				</linearGradient>
				<path class="st14" d="M407.73,292.58v-47.2H302.22v47.2l0,0c0,7.8,5.15,15.59,15.45,21.54c20.6,11.9,54.01,11.9,74.61,0
					C402.58,308.17,407.73,300.37,407.73,292.58z"/>
				<ellipse class="st2" cx="354.98" cy="245.38" rx="52.76" ry="30.46"/>
				<g>
					<linearGradient id="SVGID_10_" gradientUnits="userSpaceOnUse" x1="354.9752" y1="190.5277" x2="354.9752" y2="294.9725">
						<stop  offset="1.694780e-03" style="stop-color:#00D4C8"/>
						<stop  offset="1" style="stop-color:#00D2C7;stop-opacity:0"/>
					</linearGradient>
					<ellipse class="st15" cx="354.98" cy="239.46" rx="52.76" ry="30.46"/>
					<g>
						<path id="XMLID_914_" class="st16" d="M367.84,230.36c-0.19,5.5-6.27,9.76-13.58,9.52c-7.32-0.25-13.1-4.91-12.91-10.41
							c0.18-5.5,6.27-9.76,13.58-9.52C362.24,220.2,368.02,224.86,367.84,230.36z"/>
						<linearGradient id="XMLID_11_" gradientUnits="userSpaceOnUse" x1="341.338" y1="229.9146" x2="367.8424" y2="229.9146">
							<stop  offset="3.946110e-03" style="stop-color:#FFFFFF;stop-opacity:0"/>
							<stop  offset="1" style="stop-color:#92A7AC"/>
						</linearGradient>
						<path id="XMLID_913_" class="st17" d="M367.84,230.36c-0.19,5.5-6.27,9.76-13.58,9.52c-7.32-0.25-13.1-4.91-12.91-10.41
							c0.18-5.5,6.27-9.76,13.58-9.52C362.24,220.2,368.02,224.86,367.84,230.36z"/>
						<path id="XMLID_912_" class="st18" d="M376.62,218.5c-0.23,6.71-10.09,11.82-22.03,11.42c-11.94-0.4-21.44-6.16-21.21-12.87
							s10.09-11.82,22.03-11.42C367.35,206.03,376.85,211.79,376.62,218.5z"/>
						<linearGradient id="XMLID_12_" gradientUnits="userSpaceOnUse" x1="347.5843" y1="217.7708" x2="372.6463" y2="217.7708">
							<stop  offset="3.946110e-03" style="stop-color:#FFFFFF;stop-opacity:0"/>
							<stop  offset="1" style="stop-color:#92A7AC"/>
						</linearGradient>
						<path id="XMLID_907_" class="st19" d="M376.62,218.5c-0.23,6.71-10.09,11.82-22.03,11.42c-11.94-0.4-21.44-6.16-21.21-12.87
							s10.09-11.82,22.03-11.42C367.35,206.03,376.85,211.79,376.62,218.5z"/>
						
							<ellipse id="XMLID_906_" transform="matrix(0.0336 -0.9994 0.9994 0.0336 133.1709 558.2416)" class="st20" cx="355.25" cy="210.26" rx="12.15" ry="21.63"/>
						<linearGradient id="XMLID_13_" gradientUnits="userSpaceOnUse" x1="343.6227" y1="210.2583" x2="373.7791" y2="210.2583">
							<stop  offset="3.946110e-03" style="stop-color:#FFFFFF;stop-opacity:0"/>
							<stop  offset="1" style="stop-color:#92A7AC"/>
						</linearGradient>
						<path id="XMLID_905_" class="st21" d="M376.87,210.99c-0.23,6.71-10.09,11.82-22.03,11.42c-11.94-0.4-21.44-6.16-21.21-12.87
							c0.23-6.71,10.09-11.82,22.03-11.42C367.6,198.52,377.1,204.28,376.87,210.99z"/>
						<path id="XMLID_904_" class="st22" d="M336.89,213.02c-0.6,0.3-1.46-0.22-1.92-1.15c-0.46-0.93-0.36-1.93,0.24-2.22
							c0.6-0.3,1.46,0.22,1.92,1.15C337.59,211.73,337.48,212.72,336.89,213.02z"/>
						<path id="XMLID_897_" class="st22" d="M338.05,214.82c-0.39,0.2-0.85,0.08-1.02-0.26c-0.17-0.34,0.01-0.78,0.4-0.98
							c0.39-0.2,0.85-0.08,1.02,0.26C338.63,214.19,338.45,214.63,338.05,214.82z"/>
						<path id="XMLID_896_" class="st22" d="M336.96,221.11c-0.6,0.3-1.46-0.22-1.92-1.15c-0.46-0.93-0.36-1.93,0.24-2.22
							c0.6-0.3,1.46,0.22,1.92,1.15C337.66,219.81,337.55,220.81,336.96,221.11z"/>
						<path id="XMLID_895_" class="st22" d="M338.12,222.91c-0.39,0.2-0.85,0.08-1.02-0.26c-0.17-0.34,0.01-0.78,0.4-0.98
							c0.39-0.2,0.85-0.08,1.02,0.26C338.7,222.28,338.52,222.71,338.12,222.91z"/>
						<path id="XMLID_894_" class="st23" d="M394.33,159.57c0.14-21.8-17.39-36.3-39.12-36.43c-21.73-0.14-39.44,14.13-39.58,35.94
							c-0.14,21.36,10.78,24.59,16.35,35.57c1.74,3.44,1.1,6.49,1.1,6.49c-0.05,8.29,8.97,12.99,21.55,13.07
							c12.58,0.08,21.66-4.5,21.72-12.79c0,0-0.6-3.06,1.19-6.47C383.24,184.02,394.19,180.92,394.33,159.57z"/>
						<linearGradient id="SVGID_11_" gradientUnits="userSpaceOnUse" x1="345.8608" y1="154.435" x2="379.9865" y2="194.8171">
							<stop  offset="3.946110e-03" style="stop-color:#FFFFFF;stop-opacity:0"/>
							<stop  offset="1" style="stop-color:#FDC870"/>
						</linearGradient>
						<path class="st24" d="M394.33,159.57c-0.01,1.33-0.06,2.59-0.15,3.8c-0.07,0.91-0.16,1.8-0.28,2.64
							c-0.57,4.33-1.69,7.74-3.11,10.61c-0.03,0.06-0.06,0.11-0.08,0.17c-3.61,7.12-9.12,10.89-12.77,17.4
							c-0.15,0.24-0.28,0.5-0.41,0.75c-1.79,3.41-1.19,6.47-1.19,6.47c0,0.32-0.02,0.65-0.06,0.97c-0.01,0.15-0.02,0.29-0.05,0.43
							c0,0.07-0.02,0.15-0.03,0.22c-0.02,0.14-0.04,0.28-0.07,0.41c-0.02,0.14-0.05,0.28-0.09,0.41c-0.04,0.19-0.1,0.38-0.15,0.56
							c0,0.02-0.01,0.03-0.02,0.05c-0.16,0.52-0.37,1.02-0.62,1.5c-0.01,0.03-0.02,0.06-0.04,0.09c-2.15,4.1-7.21,6.74-13.96,7.72
							c-2.06,0.31-4.28,0.46-6.62,0.44c-12.58-0.08-21.61-4.77-21.56-13.07c0,0,0.64-3.05-1.11-6.49
							c-5.57-10.98-16.48-14.22-16.35-35.57c0.14-21.8,17.85-36.07,39.58-35.94C376.93,123.27,394.47,137.77,394.33,159.57z"/>
						
							<linearGradient id="XMLID_14_" gradientUnits="userSpaceOnUse" x1="386.0447" y1="199.9675" x2="386.0447" y2="219.6595" gradientTransform="matrix(0.9996 -0.0273 0.0273 0.9996 -37.067 -40.0028)">
							<stop  offset="3.946110e-03" style="stop-color:#FFFFFF;stop-opacity:0"/>
							<stop  offset="1" style="stop-color:#FDC870"/>
						</linearGradient>
						<path id="XMLID_828_" class="st25" d="M367.43,178.43c-0.69-4.14-5.34-9.62-8.75-4.23c-2.36,3.73-2.11,8.95-2.11,13.31v0.27
							c-0.39,0.03-0.78,0.05-1.16,0.06c-0.12,0-0.22,0.02-0.31,0.05c-0.09-0.03-0.19-0.05-0.31-0.06c-0.38-0.01-0.76-0.03-1.15-0.07
							v-0.25c0.06-3.77,0.07-7.63-1.07-11.22c-1.79-5.67-7.03-5.42-9.1-0.09c-1.97,5.08-0.13,8.99,3.35,11.31
							c1.37,0.91,3,1.58,4.75,1.97c0,0.1-0.01,0.2-0.01,0.29c-0.02,2.81-0.03,5.62-0.05,8.43c-0.02,2.5-0.03,5-0.05,7.5
							c-0.01,1.13-0.01,2.25-0.02,3.37c-0.01,1.67-0.02,3.33-0.03,4.99c0.67,0.05,1.36,0.09,2.05,0.11
							c0.01-1.72,0.02-3.43,0.03-5.15c0.01-1.14,0.02-2.27,0.03-3.41c0.01-2.5,0.03-5.01,0.05-7.51c0.01-2.76,0.03-5.53,0.05-8.29
							c0.38,0.04,0.77,0.07,1.16,0.08c0.11,0,0.21-0.01,0.31-0.04c0.09,0.03,0.19,0.05,0.3,0.04c0.39,0,0.78-0.03,1.17-0.06
							c-0.02,2.77-0.04,5.55-0.05,8.32c-0.02,2.51-0.04,5.01-0.05,7.52c-0.01,1.12-0.02,2.23-0.02,3.35
							c-0.01,0.26-0.01,0.53-0.01,0.79c-0.01,1.45-0.02,2.89-0.03,4.35v0.01c0.01,0,0.01,0,0.02,0c0.01,0,0.01,0,0.02,0
							c0.02,0,0.03,0,0.05-0.01c0.01,0.01,0.02,0,0.03,0h0.14c0.23-0.01,0.45-0.02,0.67-0.03c0.2-0.01,0.39-0.02,0.58-0.03
							c0.19-0.01,0.37-0.03,0.55-0.04c0.01-1.66,0.02-3.33,0.03-4.99c0-0.49,0.01-0.98,0.01-1.47c0-0.58,0.01-1.17,0.01-1.75
							c0.02-2.51,0.03-5.02,0.05-7.53c0.01-2.83,0.03-5.67,0.05-8.5v-0.27C364.06,188.48,368.5,184.87,367.43,178.43z
							 M344.77,180.25c-0.02-2.27,2.3-9.07,5.14-5.07c2.19,3.09,1.89,8.12,1.72,12.28C347.96,186.69,344.81,184.61,344.77,180.25z
							 M358.58,187.51c-0.12-4.17-0.36-9.2,1.87-12.26c2.9-3.97,5.13,2.86,5.08,5.13C365.43,184.74,362.25,186.78,358.58,187.51z"/>
						
							<linearGradient id="SVGID_12_" gradientUnits="userSpaceOnUse" x1="399.1078" y1="216.0085" x2="368.9544" y2="165.3508" gradientTransform="matrix(0.9996 -0.0273 0.0273 0.9996 -37.067 -40.0028)">
							<stop  offset="3.946110e-03" style="stop-color:#FFFFFF;stop-opacity:0"/>
							<stop  offset="1" style="stop-color:#FFFFFF"/>
						</linearGradient>
						<path class="st26" d="M373.92,154.16c-10.6,6.51-28.05,6.99-38.98,1.06c-10.93-5.92-11.21-16-0.61-22.51
							c10.6-6.51,28.05-6.99,38.98-1.06C384.24,137.58,384.51,147.65,373.92,154.16z"/>
						<linearGradient id="SVGID_13_" gradientUnits="userSpaceOnUse" x1="334.156" y1="179.7303" x2="301.5684" y2="163.9489">
							<stop  offset="3.946110e-03" style="stop-color:#FFFFFF;stop-opacity:0"/>
							<stop  offset="1" style="stop-color:#FFFFFF"/>
						</linearGradient>
						<path class="st27" d="M321.08,170.51c1.84,5.33,5.27,10.23,8.91,14.34c3.8,4.31,8.36,8.58,9.15,14.27
							c0.11,0.79,0.15,1.62,0.54,2.32c0.39,0.7,1.27,1.21,2,0.88c0.37-0.17,0.63-0.52,0.84-0.87c1.55-2.5,2.1-5.6,1.49-8.48
							c-0.98-4.63-4.56-7.99-7.55-11.42c-2.91-3.33-5.39-7.6-6.32-11.96c-0.58-2.74-0.76-5.55-1.35-8.29
							c-0.28-1.31-0.67-2.62-1.46-3.7c-0.79-1.08-2.05-1.89-3.38-1.85c-1.42,0.05-2.68,1.06-3.36,2.31
							c-0.68,1.25-0.85,2.71-0.88,4.13C319.63,165.05,320.15,167.84,321.08,170.51z"/>
						<linearGradient id="SVGID_14_" gradientUnits="userSpaceOnUse" x1="350.2076" y1="213.9847" x2="377.9763" y2="199.0323">
							<stop  offset="3.946110e-03" style="stop-color:#FFFFFF;stop-opacity:0"/>
							<stop  offset="1" style="stop-color:#FDC870"/>
						</linearGradient>
						<path class="st28" d="M394.33,159.57c0,1.32-0.05,2.58-0.15,3.8c-0.07,0.91-0.16,1.8-0.28,2.64
							c-0.58,4.17-1.7,7.63-3.11,10.61c-0.03,0.06-0.06,0.11-0.08,0.17c-3.61,7.12-9.12,10.89-12.77,17.4
							c-0.15,0.24-0.28,0.5-0.41,0.75c-1.79,3.41-1.19,6.47-1.19,6.47c0,0.32-0.02,0.65-0.06,0.97c-0.01,0.15-0.02,0.29-0.05,0.43
							c0,0.07-0.02,0.15-0.03,0.22c-0.02,0.14-0.04,0.28-0.07,0.41c-0.02,0.14-0.05,0.28-0.09,0.41c-0.04,0.19-0.1,0.38-0.15,0.56
							c0,0.02-0.01,0.03-0.02,0.05c-0.16,0.52-0.37,1.02-0.62,1.5c-0.01,0.03-0.02,0.06-0.04,0.09c1.12,1.54,1.72,3.21,1.67,4.95
							c-0.05,1.31-0.46,2.56-1.19,3.72c0.64,1.2,0.98,2.48,0.93,3.79c-0.13,4.01-3.7,7.44-9.1,9.47c0.23,0.77,0.34,1.57,0.32,2.39
							c-0.19,5.5-6.27,9.76-13.58,9.52c-0.41-0.02-0.82-0.04-1.23-0.09c1.59-1.91,3.38-3.74,4.29-5.54
							c3.16-6.28,3.56-13.59,3.93-20.48c0.01-0.13,0.02-0.26,0.02-0.39c0.32-5.81,0.63-11.62,0.95-17.42
							c0.03-0.58,0.07-1.17,0.29-1.7c0.68-1.58,2.7-1.94,4.38-2.34C385.28,187.59,392.76,173.95,394.33,159.57z"/>
						<path class="st23" d="M392.69,117.77c0,1.94-1.57,3.52-3.52,3.52c-1.94,0-3.52-1.57-3.52-3.52c0-1.94,1.57-3.51,3.52-3.51
							C391.12,114.25,392.69,115.83,392.69,117.77z"/>
						<path class="st23" d="M392.69,214.92c0,1.94-1.57,3.52-3.52,3.52c-1.94,0-3.52-1.57-3.52-3.52s1.57-3.52,3.52-3.52
							C391.12,211.4,392.69,212.98,392.69,214.92z"/>
						<circle class="st23" cx="325.5" cy="199.73" r="3.52"/>
						<circle class="st23" cx="396.55" cy="107.38" r="2.22"/>
						<circle class="st23" cx="392.69" cy="195.04" r="2.22"/>
						<circle class="st23" cx="331.23" cy="106.08" r="2.22"/>
						<circle class="st23" cx="398.76" cy="222.42" r="2.22"/>
						<circle class="st23" cx="319.69" cy="233.8" r="2.22"/>
					</g>
					<g>
						<linearGradient id="SVGID_15_" gradientUnits="userSpaceOnUse" x1="269.3824" y1="188.0034" x2="362.9198" y2="188.0034">
							<stop  offset="1.694780e-03" style="stop-color:#00D4C8"/>
							<stop  offset="1" style="stop-color:#00D2C7;stop-opacity:0"/>
						</linearGradient>
						<path class="st29" d="M407.73,239.46V106.08c0,7.8-5.15,15.59-15.45,21.54c-20.6,11.9-54.01,11.9-74.61,0
							c-10.3-5.95-15.45-13.74-15.45-21.54v133.38l0,0c0,7.79,5.15,15.59,15.45,21.54c20.6,11.9,54.01,11.9,74.61,0
							C402.58,255.05,407.73,247.26,407.73,239.46z"/>
						<linearGradient id="SVGID_16_" gradientUnits="userSpaceOnUse" x1="429.3182" y1="188.0034" x2="363.6617" y2="188.0034">
							<stop  offset="1.694780e-03" style="stop-color:#00D4C8"/>
							<stop  offset="1" style="stop-color:#00D2C7;stop-opacity:0"/>
						</linearGradient>
						<path class="st30" d="M407.73,239.46V106.08c0,7.8-5.15,15.59-15.45,21.54c-20.6,11.9-54.01,11.9-74.61,0
							c-10.3-5.95-15.45-13.74-15.45-21.54v133.38l0,0c0,7.79,5.15,15.59,15.45,21.54c20.6,11.9,54.01,11.9,74.61,0
							C402.58,255.05,407.73,247.26,407.73,239.46z"/>
						<linearGradient id="SVGID_17_" gradientUnits="userSpaceOnUse" x1="354.9752" y1="57.1502" x2="354.9752" y2="161.595">
							<stop  offset="1.694780e-03" style="stop-color:#00D4C8"/>
							<stop  offset="1" style="stop-color:#00D2C7;stop-opacity:0"/>
						</linearGradient>
						<ellipse class="st31" cx="354.98" cy="106.08" rx="52.76" ry="30.46"/>
					</g>
				</g>
				<path class="st2" d="M310.12,191.23L310.12,191.23c-2.23-1.28-3.6-3.66-3.6-6.23v-48.5c0-1.07,1.15-1.73,2.08-1.2l0,0
					c2.28,1.32,3.69,3.75,3.69,6.39v48.29C312.29,191.09,311.08,191.79,310.12,191.23z"/>
				<path class="st2" d="M310.12,213.05L310.12,213.05c-2.23-1.28-3.6-3.66-3.6-6.23v-6.89c0-1.07,1.15-1.73,2.08-1.2l0,0
					c2.28,1.32,3.69,3.75,3.69,6.39v6.68C312.29,212.92,311.08,213.61,310.12,213.05z"/>
			</g>
			<g>
				<path class="st13" d="M489.41,332.76v-31.92h-71.34v31.92l0,0c0,5.27,3.48,10.54,10.45,14.56c13.93,8.04,36.52,8.04,50.45,0
					C485.93,343.3,489.41,338.03,489.41,332.76z"/>
				<linearGradient id="SVGID_18_" gradientUnits="userSpaceOnUse" x1="448.4187" y1="327.1011" x2="502.0494" y2="327.1011">
					<stop  offset="0" style="stop-color:#FFFFFF;stop-opacity:0"/>
					<stop  offset="1" style="stop-color:#662D8D"/>
				</linearGradient>
				<path class="st32" d="M489.41,332.76v-31.92h-71.34v31.92l0,0c0,5.27,3.48,10.54,10.45,14.56c13.93,8.04,36.52,8.04,50.45,0
					C485.93,343.3,489.41,338.03,489.41,332.76z"/>
				<ellipse class="st2" cx="453.74" cy="300.85" rx="35.67" ry="20.59"/>
				<g>
					<linearGradient id="SVGID_19_" gradientUnits="userSpaceOnUse" x1="453.7404" y1="263.7607" x2="453.7404" y2="334.3799">
						<stop  offset="1.694780e-03" style="stop-color:#00D4C8"/>
						<stop  offset="1" style="stop-color:#00D2C7;stop-opacity:0"/>
					</linearGradient>
					<ellipse class="st33" cx="453.74" cy="296.85" rx="35.67" ry="20.59"/>
					<g>
						<path class="st23" d="M479.34,239.46c0,1.31-1.06,2.38-2.38,2.38s-2.38-1.06-2.38-2.38c0-1.31,1.06-2.38,2.38-2.38
							S479.34,238.15,479.34,239.46z"/>
						<circle class="st23" cx="474.59" cy="290.64" r="2.38"/>
						<path class="st23" d="M436.19,272.36c0,1.31-1.06,2.38-2.38,2.38c-1.31,0-2.38-1.06-2.38-2.38c0-1.31,1.06-2.38,2.38-2.38
							C435.12,269.98,436.19,271.04,436.19,272.36z"/>
						<path class="st23" d="M473.71,229.41c0,0.83-0.67,1.5-1.5,1.5s-1.5-0.67-1.5-1.5s0.67-1.5,1.5-1.5
							S473.71,228.58,473.71,229.41z"/>
						<path class="st23" d="M467.02,296.85c0,0.83-0.67,1.5-1.5,1.5s-1.5-0.67-1.5-1.5s0.67-1.5,1.5-1.5
							S467.02,296.02,467.02,296.85z"/>
						<path class="st23" d="M435.04,227.26c0,0.83-0.67,1.5-1.5,1.5s-1.5-0.67-1.5-1.5c0-0.83,0.67-1.5,1.5-1.5
							S435.04,226.43,435.04,227.26z"/>
						<path class="st23" d="M484.85,271.29c0,0.83-0.67,1.5-1.5,1.5s-1.5-0.67-1.5-1.5s0.67-1.5,1.5-1.5
							S484.85,270.46,484.85,271.29z"/>
						<path class="st23" d="M431.38,293.02c0,0.83-0.67,1.5-1.5,1.5s-1.5-0.67-1.5-1.5s0.67-1.5,1.5-1.5
							S431.38,292.19,431.38,293.02z"/>
						<g>
							<path class="st34" d="M476.12,265.53c0,0.11,0,0.23-0.01,0.34c-0.01,1.41-0.14,2.71-0.37,3.91
								c-0.14,0.73-0.32,1.42-0.54,2.07c-0.91,2.77-2.47,4.85-4.49,6.13l0.01,0.01l-0.18,0.11c-0.11,0.05-0.22,0.12-0.34,0.19
								l-5.51,3.2l-1.24-2.14c-2.15-0.3-4.48-1.1-6.93-2.52c-10.83-6.24-19.59-21.45-19.59-33.94c0-1.27,0.1-2.45,0.28-3.55
								c0.11-0.7,0.26-1.38,0.43-2.01c0.15-0.52,0.32-1.02,0.5-1.5l-1.29-2.23l5.57-3.21c0.19-0.11,0.37-0.22,0.56-0.32l0.3-0.18
								l0.01,0.03c2.26-1.09,5.01-1.31,8.07-0.51c0.63,0.17,1.29,0.37,1.96,0.63c1.05,0.4,2.12,0.91,3.21,1.54
								c0.08,0.04,0.17,0.1,0.25,0.15c0.48,0.28,0.96,0.59,1.45,0.92c0.94,0.62,1.87,1.32,2.77,2.09c0.4,0.34,0.81,0.69,1.2,1.06
								c0.8,0.73,1.57,1.52,2.33,2.34c0.34,0.37,0.69,0.77,1.02,1.17c0.7,0.81,1.36,1.65,2.01,2.52c0.29,0.41,0.59,0.83,0.87,1.25
								c0.61,0.87,1.18,1.78,1.72,2.7c0.26,0.44,0.52,0.88,0.76,1.32c0.52,0.94,1.01,1.89,1.45,2.85c0.22,0.47,0.43,0.92,0.62,1.39
								c0.43,1.01,0.81,2.01,1.16,3.02c0.18,0.5,0.33,0.99,0.48,1.49c0.33,1.07,0.61,2.15,0.81,3.21c0.12,0.52,0.22,1.06,0.3,1.58
								c0.19,1.17,0.32,2.33,0.37,3.47C476.1,264.61,476.12,265.08,476.12,265.53z"/>
							<g>
								<path class="st35" d="M453.31,230.04l-16.1,9.3l-1.31,0.76l-0.4-1.53l2.14-1.24l13.72-7.92
									C451.98,229.58,452.64,229.78,453.31,230.04z"/>
								<path class="st35" d="M458.21,232.66l-19.52,11.27l-0.4-1.53l18.47-10.66C457.25,232.01,457.73,232.33,458.21,232.66z"/>
								<path class="st35" d="M462.18,235.82l-20.69,11.94l-0.39-1.53l19.88-11.47C461.38,235.1,461.79,235.45,462.18,235.82z"/>
								<path class="st35" d="M465.52,239.33l-21.23,12.25l-0.4-1.53l20.61-11.89C464.85,238.53,465.19,238.93,465.52,239.33z"/>
								<path class="st35" d="M468.4,243.1l-21.31,12.3l-0.39-1.53l20.83-12.03C467.82,242.26,468.13,242.68,468.4,243.1z"/>
								<path class="st35" d="M470.88,247.13l-20.98,12.11l-0.4-1.53l20.62-11.9C470.39,246.24,470.65,246.69,470.88,247.13z"/>
								<path class="st35" d="M472.95,251.37l-20.25,11.7l-0.4-1.53l20.03-11.56C472.55,250.45,472.76,250.9,472.95,251.37z"/>
								<path class="st35" d="M474.59,255.87l-19.09,11.02l-0.39-1.53l19-10.98C474.29,254.88,474.44,255.38,474.59,255.87z"/>
								<path class="st35" d="M475.7,260.67l-17.4,10.06l-0.4-1.53l17.49-10.11C475.53,259.61,475.62,260.14,475.7,260.67z"/>
								<path class="st35" d="M476.12,265.53c0,0.11,0,0.23-0.01,0.34l-15,8.66l-0.4-1.53l15.37-8.87
									C476.1,264.61,476.12,265.08,476.12,265.53z"/>
								<path class="st35" d="M475.73,269.79c-0.14,0.73-0.32,1.42-0.54,2.07l-11.3,6.52l-0.39-1.53L475.73,269.79z"/>
							</g>
							
								<ellipse transform="matrix(0.866 -0.5 0.5 0.866 -68.2948 259.9712)" class="st36" cx="450.96" cy="257.42" rx="16" ry="27.71"/>
							<path class="st34" d="M454.54,241.81c-0.68,0.01-1.37,0.01-2.05,0c0.74,0.63,1.47,1.31,2.16,2.04l1.22-0.71
								C455.44,242.68,454.99,242.23,454.54,241.81z M437.2,239.34c-0.01,0.04-0.01,0.09-0.02,0.13c0.15,0.04,0.29,0.08,0.43,0.12
								c0.16-0.29,0.35-0.55,0.54-0.8L437.2,239.34z M454.54,241.81c-0.68,0.01-1.37,0.01-2.05,0c0.74,0.63,1.47,1.31,2.16,2.04
								l1.22-0.71C455.44,242.68,454.99,242.23,454.54,241.81z M437.18,239.47c0.15,0.04,0.29,0.08,0.43,0.12
								c0.16-0.29,0.35-0.55,0.54-0.8l-0.95,0.55C437.19,239.38,437.19,239.43,437.18,239.47z M466.92,265.74
								c-0.06-0.54-0.14-1.08-0.23-1.62c-0.19-1.08-0.44-2.16-0.75-3.26c-0.14-0.5-0.29-1-0.45-1.5c-0.33-1.01-0.71-2.03-1.13-3.03
								c-0.19-0.47-0.4-0.95-0.61-1.41c-0.44-0.97-0.92-1.93-1.43-2.86c-0.25-0.45-0.5-0.89-0.76-1.32
								c-0.54-0.92-1.12-1.82-1.73-2.69c-0.28-0.42-0.58-0.83-0.89-1.24c-0.64-0.88-1.32-1.72-2.02-2.52
								c-0.35-0.4-0.7-0.78-1.05-1.15c-0.43-0.46-0.88-0.91-1.33-1.33c-0.35-0.34-0.71-0.66-1.07-0.97
								c-0.41-0.37-0.82-0.71-1.24-1.04c-0.96-0.75-1.94-1.42-2.93-1.99c-0.02-0.02-0.04-0.03-0.06-0.04
								c-0.52-0.3-1.03-0.57-1.54-0.8c-1.44-0.68-2.84-1.13-4.14-1.3c-0.46-0.08-0.91-0.11-1.35-0.11c-0.7,0-1.33,0.08-1.91,0.23
								c-1.07,0.28-1.94,0.79-2.64,1.45l-0.17,0.17l-0.01,0.01c-0.5,0.51-0.91,1.1-1.24,1.74c-0.14,0.26-0.26,0.54-0.38,0.81v0.01
								c-0.89,2.17-1.05,4.62-1.05,6.13c0,10.71,7.5,24.16,16.65,30.18c0.4,0.28,0.81,0.53,1.22,0.77c2.51,1.45,4.94,2.22,7.03,2.22
								c0.74,0,1.42-0.09,2.02-0.26c0.8-0.22,1.49-0.58,2.07-1.04c0.3-0.22,0.57-0.47,0.81-0.75c0.46-0.5,0.83-1.07,1.14-1.68v-0.01
								c0.7-1.4,1.05-2.98,1.22-4.39c0.08-0.66,0.12-1.29,0.13-1.83c0.01-0.21,0.01-0.41,0.01-0.59
								C467.11,267.75,467.05,266.75,466.92,265.74z M465.44,272.03c-0.35,1.83-1.08,3.78-2.6,4.91c-0.8,0.59-1.83,0.96-3.13,0.96
								c-0.45,0-0.91-0.04-1.4-0.12h-0.01c-1.31-0.22-2.72-0.74-4.21-1.53h-0.02c-0.23-0.12-0.47-0.24-0.7-0.38
								c-9.32-5.38-17.19-19.01-17.19-29.76c0-1.3,0.13-3.41,0.84-5.28c0.16-0.43,0.36-0.85,0.59-1.24c0.16-0.29,0.35-0.55,0.54-0.8
								l0.01-0.01c0.73-0.89,1.72-1.55,3.07-1.77h0.01c0.3-0.04,0.62-0.07,0.97-0.07c1.21,0,2.57,0.3,4.01,0.88
								c0.55,0.22,1.11,0.49,1.68,0.79c0.22,0.11,0.43,0.23,0.65,0.36c0.81,0.47,1.6,0.99,2.38,1.58c0.43,0.32,0.86,0.66,1.28,1.02
								c0.1,0.07,0.18,0.14,0.27,0.24h0.01c0.74,0.63,1.47,1.31,2.16,2.04c0.37,0.37,0.72,0.75,1.06,1.14
								c0.71,0.79,1.39,1.63,2.05,2.5c0.3,0.4,0.6,0.82,0.89,1.24c0.61,0.87,1.19,1.77,1.73,2.69c0.26,0.43,0.52,0.87,0.76,1.32
								c0.51,0.94,0.99,1.9,1.42,2.87c0.22,0.46,0.42,0.93,0.61,1.4c0.42,1.01,0.79,2.03,1.1,3.05v0.01c0.17,0.51,0.31,1,0.45,1.5
								c0.29,1.1,0.53,2.2,0.69,3.28c0.09,0.55,0.16,1.1,0.21,1.64c0.07,0.76,0.11,1.51,0.11,2.24c0,0.4-0.01,0.88-0.05,1.41
								C465.64,270.73,465.56,271.37,465.44,272.03z M437.2,239.34c-0.01,0.04-0.01,0.09-0.02,0.13c0.15,0.04,0.29,0.08,0.43,0.12
								c0.16-0.29,0.35-0.55,0.54-0.8L437.2,239.34z M454.54,241.81c-0.68,0.01-1.37,0.01-2.05,0c0.74,0.63,1.47,1.31,2.16,2.04
								l1.22-0.71C455.44,242.68,454.99,242.23,454.54,241.81z"/>
							<g>
								<path class="st34" d="M456.42,260.91c-0.2-0.47-0.44-0.92-0.71-1.35c-0.57-0.91-1.29-1.74-2.08-2.48
									c-0.4-0.37-0.81-0.73-1.23-1.05c-0.31-0.25-0.62-0.48-0.93-0.7c-0.75-0.52-1.36-0.96-1.76-1.44
									c-0.32-0.38-0.5-0.78-0.5-1.26c0-0.08,0.01-0.16,0.03-0.22c0.07-0.27,0.29-0.37,0.59-0.34c0.33,0.02,0.78,0.2,1.23,0.46
									c0.16,0.09,0.32,0.19,0.48,0.3c0.9,0.57,1.72,1.29,2.46,2.28c0.09,0.11,0.17,0.22,0.25,0.34l1.51-1.36l0.02-0.02h0.01
									l0.37-0.33c-0.63-0.93-1.28-1.73-1.98-2.43c-0.38-0.38-0.78-0.73-1.19-1.06c-0.12-0.1-0.25-0.2-0.37-0.29v-2l-1.03-0.59
									l-1.53-0.88l-0.72-0.42v2.05c-0.53-0.19-1.04-0.31-1.5-0.35h-0.01c-1.08-0.08-1.92,0.3-2.28,1.32
									c-0.13,0.36-0.2,0.79-0.2,1.31c0,0.19,0.01,0.37,0.02,0.55c0.11,1.75,0.75,3.16,1.7,4.38l0.01,0.01
									c0.01,0.02,0.02,0.04,0.03,0.05c0.67,0.85,1.49,1.61,2.39,2.31c0.43,0.34,0.89,0.67,1.35,0.98
									c0.02,0.02,0.03,0.03,0.05,0.04c1.25,0.85,2,1.65,2.2,2.35c0.06,0.14,0.08,0.27,0.08,0.4c0,0.49-0.27,0.71-0.72,0.68
									c-0.37-0.01-0.85-0.19-1.42-0.52c-1.15-0.66-2.65-1.8-4-4.08l-2.12,1.58c1.42,2.58,2.78,4.06,4.42,5.23v2.12l3.28,1.89
									v-2.18c1.05,0.4,2.03,0.54,2.79,0.33c0.86-0.24,1.44-0.94,1.56-2.23v-0.01c0.02-0.17,0.03-0.35,0.03-0.54
									C457,262.74,456.79,261.79,456.42,260.91z"/>
							</g>
						</g>
					</g>
					<g>
						<linearGradient id="SVGID_20_" gradientUnits="userSpaceOnUse" x1="395.8678" y1="269.3333" x2="459.112" y2="269.3333">
							<stop  offset="1.694780e-03" style="stop-color:#00D4C8"/>
							<stop  offset="1" style="stop-color:#00D2C7;stop-opacity:0"/>
						</linearGradient>
						<path class="st37" d="M489.41,296.85v-75.62c0,5.27-3.48,10.54-10.45,14.56c-13.93,8.04-36.52,8.04-50.45,0
							c-6.97-4.02-10.45-9.29-10.45-14.56v75.62l0,0c0,5.27,3.48,10.54,10.45,14.56c13.93,8.04,36.52,8.04,50.45,0
							C485.93,307.39,489.41,302.12,489.41,296.85z"/>
						<linearGradient id="SVGID_21_" gradientUnits="userSpaceOnUse" x1="504.0065" y1="269.3333" x2="459.6136" y2="269.3333">
							<stop  offset="1.694780e-03" style="stop-color:#00D4C8"/>
							<stop  offset="1" style="stop-color:#00D2C7;stop-opacity:0"/>
						</linearGradient>
						<path class="st38" d="M489.41,296.85v-75.62c0,5.27-3.48,10.54-10.45,14.56c-13.93,8.04-36.52,8.04-50.45,0
							c-6.97-4.02-10.45-9.29-10.45-14.56v75.62l0,0c0,5.27,3.48,10.54,10.45,14.56c13.93,8.04,36.52,8.04,50.45,0
							C485.93,307.39,489.41,302.12,489.41,296.85z"/>
						<linearGradient id="SVGID_22_" gradientUnits="userSpaceOnUse" x1="453.7404" y1="188.1378" x2="453.7404" y2="258.757">
							<stop  offset="1.694780e-03" style="stop-color:#00D4C8"/>
							<stop  offset="1" style="stop-color:#00D2C7;stop-opacity:0"/>
						</linearGradient>
						<ellipse class="st39" cx="453.74" cy="221.22" rx="35.67" ry="20.59"/>
					</g>
				</g>
				<path class="st2" d="M423.41,264.24L423.41,264.24c-1.5-0.87-2.43-2.47-2.43-4.21v-21.85c0-0.72,0.78-1.17,1.41-0.81l0,0
					c1.54,0.89,2.49,2.54,2.49,4.32v21.7C424.88,264.14,424.06,264.61,423.41,264.24z"/>
				<path class="st2" d="M423.41,278.99L423.41,278.99c-1.5-0.87-2.43-2.47-2.43-4.21v-4.66c0-0.72,0.78-1.17,1.41-0.81l0,0
					c1.54,0.89,2.49,2.54,2.49,4.32v4.51C424.88,278.9,424.06,279.37,423.41,278.99z"/>
			</g>
			<g>
				<path class="st13" d="M291.78,233.03v-31.92h-71.34v31.92l0,0c0,5.27,3.48,10.54,10.45,14.56c13.93,8.04,36.52,8.04,50.45,0
					C288.3,243.57,291.78,238.3,291.78,233.03z"/>
				<linearGradient id="SVGID_23_" gradientUnits="userSpaceOnUse" x1="250.7875" y1="227.3694" x2="304.4181" y2="227.3694">
					<stop  offset="0" style="stop-color:#FFFFFF;stop-opacity:0"/>
					<stop  offset="1" style="stop-color:#662D8D"/>
				</linearGradient>
				<path class="st40" d="M291.78,233.03v-31.92h-71.34v31.92l0,0c0,5.27,3.48,10.54,10.45,14.56c13.93,8.04,36.52,8.04,50.45,0
					C288.3,243.57,291.78,238.3,291.78,233.03z"/>
				<ellipse class="st2" cx="256.11" cy="201.11" rx="35.67" ry="20.59"/>
				<g>
					<linearGradient id="SVGID_24_" gradientUnits="userSpaceOnUse" x1="256.1091" y1="164.0289" x2="256.1091" y2="234.6482">
						<stop  offset="1.694780e-03" style="stop-color:#00D4C8"/>
						<stop  offset="1" style="stop-color:#00D2C7;stop-opacity:0"/>
					</linearGradient>
					<ellipse class="st41" cx="256.11" cy="197.12" rx="35.67" ry="20.59"/>
					<g>
						<circle class="st42" cx="279.33" cy="139.73" r="2.38"/>
						<circle class="st42" cx="276.96" cy="190.91" r="2.38"/>
						<path class="st42" d="M238.56,172.62c0,1.31-1.06,2.38-2.38,2.38c-1.31,0-2.38-1.06-2.38-2.38c0-1.31,1.06-2.38,2.38-2.38
							C237.49,170.25,238.56,171.31,238.56,172.62z"/>
						<path class="st42" d="M276.08,129.68c0,0.83-0.67,1.5-1.5,1.5s-1.5-0.67-1.5-1.5s0.67-1.5,1.5-1.5
							S276.08,128.85,276.08,129.68z"/>
						<path class="st42" d="M269.39,197.12c0,0.83-0.67,1.5-1.5,1.5s-1.5-0.67-1.5-1.5s0.67-1.5,1.5-1.5
							S269.39,196.29,269.39,197.12z"/>
						<path class="st42" d="M237.41,127.53c0,0.83-0.67,1.5-1.5,1.5s-1.5-0.67-1.5-1.5s0.67-1.5,1.5-1.5S237.41,126.7,237.41,127.53
							z"/>
						<path class="st42" d="M287.22,171.55c0,0.83-0.67,1.5-1.5,1.5s-1.5-0.67-1.5-1.5s0.67-1.5,1.5-1.5
							S287.22,170.73,287.22,171.55z"/>
						<path class="st42" d="M233.75,193.29c0,0.83-0.67,1.5-1.5,1.5s-1.5-0.67-1.5-1.5s0.67-1.5,1.5-1.5
							S233.75,192.46,233.75,193.29z"/>
						<g>
							<path class="st42" d="M278.49,165.8c0,0.11,0,0.23-0.01,0.34c-0.01,1.41-0.14,2.71-0.37,3.91c-0.14,0.73-0.32,1.42-0.54,2.07
								c-0.91,2.77-2.47,4.85-4.49,6.13l0.01,0.01l-0.18,0.11c-0.11,0.05-0.22,0.12-0.34,0.19l-5.51,3.2l-1.24-2.14
								c-2.15-0.3-4.48-1.1-6.93-2.52c-10.83-6.24-19.59-21.45-19.59-33.94c0-1.27,0.1-2.45,0.28-3.55c0.11-0.7,0.26-1.38,0.43-2.01
								c0.15-0.52,0.32-1.02,0.5-1.5l-1.3-2.23l5.57-3.21c0.19-0.11,0.37-0.22,0.56-0.32l0.3-0.18l0.01,0.03
								c2.26-1.09,5.01-1.31,8.07-0.51c0.63,0.17,1.29,0.37,1.96,0.63c1.05,0.4,2.12,0.91,3.21,1.54c0.08,0.04,0.17,0.1,0.25,0.15
								c0.48,0.28,0.96,0.59,1.45,0.92c0.94,0.62,1.87,1.32,2.77,2.09c0.4,0.34,0.81,0.69,1.2,1.06c0.8,0.73,1.57,1.52,2.33,2.34
								c0.34,0.37,0.69,0.77,1.02,1.17c0.7,0.81,1.36,1.65,2.01,2.52c0.29,0.41,0.59,0.83,0.87,1.25c0.61,0.87,1.18,1.78,1.72,2.7
								c0.26,0.44,0.52,0.88,0.76,1.32c0.52,0.94,1.01,1.89,1.45,2.85c0.22,0.47,0.43,0.92,0.62,1.39c0.43,1.01,0.81,2.01,1.16,3.02
								c0.18,0.5,0.33,0.99,0.48,1.49c0.33,1.07,0.61,2.15,0.81,3.21c0.12,0.52,0.22,1.06,0.3,1.58c0.19,1.17,0.32,2.33,0.37,3.47
								C278.47,164.88,278.49,165.34,278.49,165.8z"/>
							<linearGradient id="SVGID_25_" gradientUnits="userSpaceOnUse" x1="253.6505" y1="144.3997" x2="274.5457" y2="184.6277">
								<stop  offset="0" style="stop-color:#FFFFFF;stop-opacity:0"/>
								<stop  offset="1" style="stop-color:#662D8D"/>
							</linearGradient>
							<path class="st43" d="M278.49,165.8c0,0.11,0,0.23-0.01,0.34c-0.01,1.41-0.14,2.71-0.37,3.91c-0.14,0.73-0.32,1.42-0.54,2.07
								c-0.91,2.77-2.47,4.85-4.49,6.13l0.01,0.01l-0.18,0.11c-0.11,0.05-0.22,0.12-0.34,0.19l-5.51,3.2l-1.24-2.14
								c-2.15-0.3-4.48-1.1-6.93-2.52c-10.83-6.24-19.59-21.45-19.59-33.94c0-1.27,0.1-2.45,0.28-3.55c0.11-0.7,0.26-1.38,0.43-2.01
								c0.15-0.52,0.32-1.02,0.5-1.5l-1.3-2.23l5.57-3.21c0.19-0.11,0.37-0.22,0.56-0.32l0.3-0.18l0.01,0.03
								c2.26-1.09,5.01-1.31,8.07-0.51c0.63,0.17,1.29,0.37,1.96,0.63c1.05,0.4,2.12,0.91,3.21,1.54c0.08,0.04,0.17,0.1,0.25,0.15
								c0.48,0.28,0.96,0.59,1.45,0.92c0.94,0.62,1.87,1.32,2.77,2.09c0.4,0.34,0.81,0.69,1.2,1.06c0.8,0.73,1.57,1.52,2.33,2.34
								c0.34,0.37,0.69,0.77,1.02,1.17c0.7,0.81,1.36,1.65,2.01,2.52c0.29,0.41,0.59,0.83,0.87,1.25c0.61,0.87,1.18,1.78,1.72,2.7
								c0.26,0.44,0.52,0.88,0.76,1.32c0.52,0.94,1.01,1.89,1.45,2.85c0.22,0.47,0.43,0.92,0.62,1.39c0.43,1.01,0.81,2.01,1.16,3.02
								c0.18,0.5,0.33,0.99,0.48,1.49c0.33,1.07,0.61,2.15,0.81,3.21c0.12,0.52,0.22,1.06,0.3,1.58c0.19,1.17,0.32,2.33,0.37,3.47
								C278.47,164.88,278.49,165.34,278.49,165.8z"/>
							
								<ellipse transform="matrix(0.866 -0.5 0.5 0.866 -44.9066 147.7925)" class="st44" cx="253.33" cy="157.69" rx="16" ry="27.71"/>
							
								<ellipse transform="matrix(0.866 -0.5 0.5 0.866 -44.9066 147.7928)" class="st45" cx="253.33" cy="157.69" rx="12.62" ry="21.85"/>
							
								<ellipse transform="matrix(0.866 -0.5 0.5 0.866 -44.9066 147.7926)" class="st45" cx="253.33" cy="157.69" rx="8.8" ry="15.24"/>
							<path class="st45" d="M259.7,161.37c0,4.07-2.85,5.71-6.38,3.68c-3.52-2.03-6.38-6.98-6.38-11.04c0-4.07,2.85-5.71,6.38-3.68
								C256.85,152.36,259.7,157.31,259.7,161.37z"/>
							<path class="st2" d="M255.84,159.14c0,1.6-1.12,2.25-2.51,1.45c-1.39-0.8-2.51-2.74-2.51-4.34s1.12-2.25,2.51-1.45
								C254.71,155.6,255.84,157.54,255.84,159.14z"/>
						</g>
					</g>
					<g>
						<linearGradient id="SVGID_26_" gradientUnits="userSpaceOnUse" x1="198.2366" y1="169.6016" x2="261.4807" y2="169.6016">
							<stop  offset="1.694780e-03" style="stop-color:#00D4C8"/>
							<stop  offset="1" style="stop-color:#00D2C7;stop-opacity:0"/>
						</linearGradient>
						<path class="st46" d="M291.78,197.11v-75.62c0,5.27-3.48,10.54-10.45,14.56c-13.93,8.04-36.52,8.04-50.45,0
							c-6.97-4.02-10.45-9.29-10.45-14.56v75.62l0,0c0,5.27,3.48,10.54,10.45,14.56c13.93,8.04,36.52,8.04,50.45,0
							C288.3,207.66,291.78,202.39,291.78,197.11z"/>
						<linearGradient id="SVGID_27_" gradientUnits="userSpaceOnUse" x1="306.3752" y1="169.6016" x2="261.9824" y2="169.6016">
							<stop  offset="1.694780e-03" style="stop-color:#00D4C8"/>
							<stop  offset="1" style="stop-color:#00D2C7;stop-opacity:0"/>
						</linearGradient>
						<path class="st47" d="M291.78,197.11v-75.62c0,5.27-3.48,10.54-10.45,14.56c-13.93,8.04-36.52,8.04-50.45,0
							c-6.97-4.02-10.45-9.29-10.45-14.56v75.62l0,0c0,5.27,3.48,10.54,10.45,14.56c13.93,8.04,36.52,8.04,50.45,0
							C288.3,207.66,291.78,202.39,291.78,197.11z"/>
						<linearGradient id="SVGID_28_" gradientUnits="userSpaceOnUse" x1="256.1091" y1="88.4061" x2="256.1091" y2="159.0253">
							<stop  offset="1.694780e-03" style="stop-color:#00D4C8"/>
							<stop  offset="1" style="stop-color:#00D2C7;stop-opacity:0"/>
						</linearGradient>
						<ellipse class="st48" cx="256.11" cy="121.49" rx="35.67" ry="20.59"/>
					</g>
				</g>
				<path class="st2" d="M225.78,164.51L225.78,164.51c-1.5-0.87-2.43-2.47-2.43-4.21v-21.85c0-0.72,0.78-1.17,1.4-0.81l0,0
					c1.54,0.89,2.49,2.54,2.49,4.32v21.7C227.25,164.41,226.43,164.88,225.78,164.51z"/>
				<path class="st2" d="M225.78,179.26L225.78,179.26c-1.5-0.87-2.43-2.47-2.43-4.21v-4.66c0-0.72,0.78-1.17,1.4-0.81l0,0
					c1.54,0.89,2.49,2.54,2.49,4.32v4.51C227.25,179.17,226.43,179.64,225.78,179.26z"/>
			</g>
			<g>
				<path class="st49" d="M364.92,287.4c0,0-5.89,6.26-6.27,12.49l1.15,2.45l2.37-1.73c0,0,1.68-8.18,4.74-10.63L364.92,287.4z"/>
				<path class="st50" d="M378.74,360.77c0,0,0.41,3.87-1.49,3.67c-2.21-0.23-9.05-4.84-7.53-6.29c1.52-1.45,7.23,1.18,7.23,1.18
					L378.74,360.77z"/>
				<path class="st50" d="M366.58,366.51c0,0,0.41,3.87-1.49,3.67c-2.21-0.23-9.05-4.84-7.53-6.29c1.52-1.45,7.23,1.18,7.23,1.18
					L366.58,366.51z"/>
				<rect x="368.31" y="269.9" class="st51" width="4.06" height="5.73"/>
				<path class="st49" d="M363.99,300.81c0,0-6.53,14.91-1.63,66.06c0.03,0.26,0.17,0.5,0.4,0.63c0.86,0.49,3.03,1.37,4.15-1.52
					c0.03-0.08,0.05-0.16,0.05-0.24l4.25-53.59c0.03-0.86,0.48-0.9,0.57-0.04l2.61,48.99c0.02,0.37,0.25,0.69,0.6,0.82
					c1.14,0.43,3.65,0.93,4.12-2.67c0,0,4.44-53-0.74-60.18L363.99,300.81z"/>
				<path class="st50" d="M378.38,297.44c-0.12,0.22-0.26,0.43-0.43,0.61c-1.49,1.52-5.49,4.27-13.47,1.41
					c-0.18-0.06-0.34-0.16-0.48-0.28v1.64c0.14,0.12,0.3,0.22,0.48,0.28c7.98,2.85,11.99,0.11,13.47-1.41
					c0.18-0.18,0.32-0.39,0.43-0.61V297.44z"/>
				<path class="st2" d="M394.61,248.83c0,0,0-3.47,0.48-3.54c0.33-0.05,0.32,1.1,0.32,1.1s0.39-2.58,0.95-2.43
					c0.2,0.05-0.05,1.63-0.05,1.63s0.24-0.91,1.68,0c0.45,0.28,0.34,1.13-1.37,3.82L394.61,248.83z"/>
				<path class="st52" d="M377.52,272.1c0,0,12.15-1.05,16.95-23.54c0,0,1.29-0.24,2.33,0.82c0,0-0.71,27.04-17.53,32.23
					L377.52,272.1z"/>
				<path class="st53" d="M368.31,273.69l4.06-0.92l6.4-0.83c1.57-0.21,2.7,2.06,2.81,4.49c0.21,4.62-2.88,20.32-2.88,20.32
					c-0.04,0.63-0.3,1.24-0.74,1.69c-1.48,1.52-5.48,4.29-13.49,1.42c-0.51-0.18-0.88-0.63-0.95-1.16l-2.98-18.57
					c-0.16-0.97,0.26-1.94,1.06-2.5L368.31,273.69z"/>
				<path class="st2" d="M363.26,262.7c0,0,0.49,5.55,2.78,8.39c2.29,2.84,6.73-1.85,7.39-3.22c0.66-1.37,1.73-9.94-5.15-9.94
					C363.82,257.92,363.04,260.7,363.26,262.7z"/>
				<path class="st49" d="M369.9,266.15c0,0-2.31-1.64-3.17-4.43c0,0-0.51-0.3-3.33,2.06c0,0-3.18-0.01-1.7-3.36
					s7.59-7.59,10.53-4.24c0,0,5.6-0.93,4.52,6.32c-1.43,9.55-5.9,7.98-7.02,5.8C368.62,266.15,369.9,266.15,369.9,266.15z"/>
				<path class="st2" d="M368.45,265.03c0,0,0.93-1.83,1.69-0.74c0.76,1.09-0.16,3.29-1.83,3.58L368.45,265.03z"/>
				<polygon class="st49" points="343.13,272.04 351.75,280.63 360.4,275.49 351.75,266.64 				"/>
				<polyline class="st54" points="351.02,276.63 351.02,274.71 352.83,274.71 352.83,270.66 				"/>
				<polyline class="st54" points="351.12,271.78 352.73,270.16 354.55,271.98 				"/>
				<path class="st2" d="M346.87,275.76c-0.03-0.05,0.68-0.78,1.21-1.33c0.16-0.16,0.42,0,0.36,0.21l-0.36,1.27
					c0,0,1.83-0.51,0.8,2.51l-1.78,0.48L346.87,275.76z"/>
				<path class="st52" d="M349.04,278.38c0,0,9.45,16.97,3.83,18.04c-5.62,1.06-5.89-17.48-5.89-17.48S347.53,278.16,349.04,278.38z
					"/>
				<path class="st52" d="M361.59,277.63c0,0-2.54,1.27-6.06,6.29c-4.79,6.82-6.99,10.89-2.54,12.39c1.13,0.38,8.9-7.77,8.9-7.77
					S365.05,281.79,361.59,277.63z"/>
				<path class="st52" d="M367.49,274.18l0.82-1.4c0,0,1.39-0.85,4.06-0.91l0.97,0.83C373.34,272.69,373.14,273.65,367.49,274.18z"
					/>
			</g>
			<g>
				<polygon class="st13" points="284.63,257.4 253.93,326.63 251.14,324.97 251.14,284.74 				"/>
				<polygon class="st13" points="287.42,259.05 287.42,307.3 253.93,326.63 253.93,286.4 				"/>
				<linearGradient id="SVGID_29_" gradientUnits="userSpaceOnUse" x1="254.3363" y1="260.1666" x2="292.2209" y2="335.9357">
					<stop  offset="0" style="stop-color:#FFFFFF;stop-opacity:0"/>
					<stop  offset="1" style="stop-color:#662D8D"/>
				</linearGradient>
				<polygon class="st55" points="287.42,259.05 287.42,307.3 253.93,326.63 253.93,286.4 				"/>
			</g>
			<g>
				<polygon class="st13" points="338.55,288.48 307.85,357.72 305.06,356.06 305.06,315.82 				"/>
				<polygon class="st13" points="341.34,290.14 341.34,338.38 307.85,357.72 307.85,317.48 				"/>
				<linearGradient id="SVGID_30_" gradientUnits="userSpaceOnUse" x1="280.1286" y1="323.9268" x2="383.0791" y2="323.9268">
					<stop  offset="0" style="stop-color:#FFFFFF;stop-opacity:0"/>
					<stop  offset="1" style="stop-color:#662D8D"/>
				</linearGradient>
				<polygon class="st56" points="341.34,290.14 341.34,338.38 307.85,357.72 307.85,317.48 				"/>
			</g>
			<polygon class="st13" points="307.85,320.18 251.14,287.43 341.34,290.14 341.34,292.83 			"/>
			<linearGradient id="SVGID_31_" gradientUnits="userSpaceOnUse" x1="280.1285" y1="303.8043" x2="383.0786" y2="303.8043">
				<stop  offset="0" style="stop-color:#FFFFFF;stop-opacity:0"/>
				<stop  offset="1" style="stop-color:#662D8D"/>
			</linearGradient>
			<polygon class="st57" points="307.85,320.18 251.14,287.43 341.34,290.14 341.34,292.83 			"/>
			<polygon class="st2" points="307.85,317.48 251.14,284.74 284.63,257.4 341.34,290.14 			"/>
			<polygon class="st49" points="307.08,312.98 257.74,284.47 285.4,261.89 334.74,290.4 			"/>
			<linearGradient id="SVGID_32_" gradientUnits="userSpaceOnUse" x1="292.3459" y1="264.3156" x2="289.698" y2="290.416">
				<stop  offset="3.946110e-03" style="stop-color:#FFFFFF;stop-opacity:0"/>
				<stop  offset="1" style="stop-color:#FDC870"/>
			</linearGradient>
			<path class="st58" d="M294.61,288.01l-18.81-10.87c-0.43-0.25-0.48-0.86-0.09-1.18l9.91-8.09c0.53-0.43,1.27-0.49,1.86-0.15
				l18.55,10.72c0.56,0.32,0.62,1.11,0.12,1.51l-9.68,7.91C295.94,288.3,295.2,288.36,294.61,288.01z"/>
			<linearGradient id="SVGID_33_" gradientUnits="userSpaceOnUse" x1="283.4183" y1="280.3169" x2="276.7675" y2="292.9306">
				<stop  offset="0" style="stop-color:#BA68C8;stop-opacity:0"/>
				<stop  offset="1" style="stop-color:#BA68C8"/>
			</linearGradient>
			<path class="st59" d="M286.18,294.75l-18.81-10.87c-0.43-0.25-0.48-0.86-0.09-1.18l4.9-3.91c0.53-0.43,1.27-0.49,1.86-0.15
				l18.55,10.72c0.56,0.32,0.62,1.11,0.12,1.51l-4.67,3.72C287.51,295.04,286.77,295.1,286.18,294.75z"/>
			<g>
				<linearGradient id="SVGID_34_" gradientUnits="userSpaceOnUse" x1="299.0348" y1="290.1299" x2="292.8455" y2="301.868">
					<stop  offset="1.694780e-03" style="stop-color:#00D4C8"/>
					<stop  offset="1" style="stop-color:#00D2C7;stop-opacity:0"/>
				</linearGradient>
				<path class="st60" d="M295.69,300.45l-6.13-3.51c-0.43-0.25-0.48-0.86-0.09-1.18l4.9-3.91c0.53-0.43,1.27-0.49,1.86-0.15
					l5.87,3.36c0.56,0.32,0.62,1.11,0.12,1.51l-4.67,3.72C297.02,300.73,296.28,300.79,295.69,300.45z"/>
				<linearGradient id="SVGID_35_" gradientUnits="userSpaceOnUse" x1="308.8001" y1="289.89" x2="302.8147" y2="309.3428">
					<stop  offset="1.694780e-03" style="stop-color:#EF5350"/>
					<stop  offset="1" style="stop-color:#EF5350;stop-opacity:0"/>
				</linearGradient>
				<path class="st61" d="M305.29,305.87l-6.54-3.87c-0.43-0.25-0.48-0.86-0.09-1.18l4.9-3.91c0.53-0.43,1.27-0.49,1.86-0.15
					l6.28,3.72c0.56,0.32,0.62,1.11,0.12,1.51l-4.67,3.72C306.62,306.16,305.88,306.22,305.29,305.87z"/>
			</g>
			<polygon class="st13" points="307.85,320.18 307.85,317.48 251.14,284.74 251.14,287.43 			"/>
			<path class="st62" d="M279.5,276.56c0.05-0.1,9.13-0.73,9.13-0.73l1.76,3.17h10.94l-2.37-1.13"/>
			<line class="st62" x1="301.32" y1="279" x2="301.32" y2="280.88"/>
			<ellipse class="st44" cx="311.47" cy="282.76" rx="1.14" ry="0.66"/>
			<ellipse class="st63" cx="314.77" cy="284.64" rx="1.14" ry="0.66"/>
			<path class="st44" d="M318.87,286.99c-0.45,0.26-1.17,0.26-1.61,0c-0.45-0.26-0.45-0.67,0-0.93c0.45-0.26,1.17-0.26,1.61,0
				C319.31,286.31,319.31,286.73,318.87,286.99z"/>
			<path class="st44" d="M322.16,288.87c-0.44,0.26-1.17,0.26-1.61,0c-0.45-0.26-0.45-0.67,0-0.93c0.45-0.26,1.17-0.26,1.61,0
				C322.61,288.19,322.61,288.61,322.16,288.87z"/>
			<path class="st44" d="M325.46,290.75c-0.45,0.26-1.17,0.26-1.61,0c-0.45-0.26-0.45-0.67,0-0.93c0.45-0.26,1.17-0.26,1.61,0
				C325.9,290.07,325.9,290.49,325.46,290.75z"/>
			<path class="st44" d="M309.57,285.29c-0.45,0.26-1.17,0.26-1.61,0c-0.45-0.26-0.45-0.67,0-0.93c0.45-0.26,1.17-0.26,1.61,0
				C310.01,284.61,310.01,285.03,309.57,285.29z"/>
			<path class="st44" d="M312.86,287.17c-0.45,0.26-1.17,0.26-1.61,0c-0.45-0.26-0.45-0.67,0-0.93c0.45-0.26,1.17-0.26,1.61,0
				C313.31,286.49,313.31,286.91,312.86,287.17z"/>
			<path class="st44" d="M316.16,289.05c-0.45,0.26-1.17,0.26-1.61,0c-0.45-0.26-0.45-0.67,0-0.93c0.45-0.26,1.17-0.26,1.61,0
				C316.6,288.37,316.6,288.79,316.16,289.05z"/>
			<path class="st63" d="M319.45,290.93c-0.45,0.26-1.17,0.26-1.61,0c-0.45-0.26-0.45-0.67,0-0.93c0.44-0.26,1.17-0.26,1.61,0
				C319.9,290.25,319.9,290.67,319.45,290.93z"/>
			<path class="st63" d="M322.75,292.81c-0.44,0.26-1.17,0.26-1.61,0c-0.45-0.26-0.45-0.67,0-0.93c0.45-0.26,1.17-0.26,1.61,0
				C323.19,292.13,323.19,292.55,322.75,292.81z"/>
			<path class="st63" d="M306.86,287.35c-0.45,0.26-1.17,0.26-1.61,0c-0.45-0.26-0.45-0.67,0-0.93c0.45-0.26,1.17-0.26,1.61,0
				C307.3,286.67,307.3,287.09,306.86,287.35z"/>
			<path class="st44" d="M310.15,289.23c-0.45,0.26-1.17,0.26-1.61,0c-0.45-0.26-0.45-0.67,0-0.93c0.45-0.26,1.17-0.26,1.61,0
				C310.6,288.55,310.6,288.97,310.15,289.23z"/>
			<ellipse class="st63" cx="312.64" cy="290.64" rx="1.14" ry="0.66"/>
			<path class="st44" d="M316.74,292.99c-0.45,0.26-1.17,0.26-1.61,0c-0.45-0.26-0.45-0.67,0-0.93c0.45-0.26,1.17-0.26,1.61,0
				C317.19,292.31,317.19,292.73,316.74,292.99z"/>
			<path class="st44" d="M320.04,294.87c-0.45,0.26-1.17,0.26-1.61,0c-0.45-0.26-0.45-0.67,0-0.93c0.44-0.26,1.17-0.26,1.61,0
				C320.48,294.19,320.48,294.61,320.04,294.87z"/>
			<path class="st44" d="M304.14,289.41c-0.44,0.26-1.17,0.26-1.61,0c-0.44-0.26-0.44-0.67,0-0.93c0.45-0.26,1.17-0.26,1.61,0
				C304.59,288.73,304.59,289.15,304.14,289.41z"/>
			<path class="st44" d="M307.44,291.29c-0.45,0.26-1.17,0.26-1.61,0c-0.45-0.26-0.45-0.67,0-0.93c0.45-0.26,1.17-0.26,1.61,0
				C307.88,290.61,307.88,291.03,307.44,291.29z"/>
			<path class="st44" d="M310.74,293.17c-0.45,0.26-1.17,0.26-1.61,0c-0.45-0.26-0.45-0.67,0-0.93c0.45-0.26,1.17-0.26,1.61,0
				C311.18,292.49,311.18,292.91,310.74,293.17z"/>
			<path class="st44" d="M314.03,295.05c-0.45,0.26-1.17,0.26-1.61,0c-0.45-0.26-0.45-0.67,0-0.93c0.45-0.26,1.17-0.26,1.61,0
				C314.48,294.37,314.48,294.79,314.03,295.05z"/>
			<path class="st63" d="M317.33,296.93c-0.45,0.26-1.17,0.26-1.61,0c-0.45-0.26-0.45-0.67,0-0.93c0.45-0.26,1.17-0.26,1.61,0
				C317.77,296.25,317.77,296.67,317.33,296.93z"/>
			<ellipse class="st63" cx="300.63" cy="291" rx="1.14" ry="0.66"/>
			<ellipse class="st44" cx="303.92" cy="292.88" rx="1.14" ry="0.66"/>
			<path class="st63" d="M308.02,295.23c-0.45,0.26-1.17,0.26-1.61,0c-0.45-0.26-0.45-0.67,0-0.93c0.45-0.26,1.17-0.26,1.61,0
				C308.47,294.55,308.47,294.97,308.02,295.23z"/>
			<ellipse class="st44" cx="310.51" cy="296.64" rx="1.14" ry="0.66"/>
			<path class="st63" d="M314.62,298.99c-0.45,0.26-1.17,0.26-1.61,0c-0.45-0.26-0.45-0.67,0-0.93c0.45-0.26,1.17-0.26,1.61,0
				C315.06,298.31,315.06,298.73,314.62,298.99z"/>
			<g>
				<line class="st64" x1="272.9" y1="280.65" x2="289.6" y2="290.42"/>
				<line class="st64" x1="271.68" y1="281.62" x2="288.38" y2="291.39"/>
				<line class="st64" x1="270.46" y1="282.59" x2="287.16" y2="292.36"/>
			</g>
			<g>
				<path class="st49" d="M264.33,281.64c0,0,6.21,6.61,6.62,13.18l-1.21,2.59l-2.5-1.83c0,0-1.78-8.64-5-11.22L264.33,281.64z"/>
				<path class="st50" d="M249.74,359.08c0,0-0.43,4.09,1.57,3.88c2.33-0.25,9.55-5.11,7.94-6.64c-1.61-1.53-7.63,1.24-7.63,1.24
					L249.74,359.08z"/>
				<path class="st50" d="M262.57,365.13c0,0-0.43,4.09,1.57,3.88c2.33-0.25,9.55-5.11,7.94-6.64c-1.61-1.53-7.63,1.24-7.63,1.24
					L262.57,365.13z"/>
				
					<rect x="256.46" y="263.17" transform="matrix(-1 -1.224647e-16 1.224647e-16 -1 517.2061 532.3979)" class="st2" width="4.28" height="6.05"/>
				<path class="st49" d="M265.31,295.8c0,0,6.89,15.73,1.72,69.73c-0.03,0.28-0.18,0.53-0.42,0.67c-0.91,0.52-3.19,1.45-4.38-1.6
					c-0.03-0.08-0.05-0.17-0.06-0.26l-4.49-56.56c-0.04-0.91-0.51-0.95-0.6-0.05l-2.76,51.71c-0.02,0.39-0.27,0.73-0.63,0.87
					c-1.21,0.45-3.85,0.98-4.34-2.82c0,0-4.68-55.94,0.79-63.52L265.31,295.8z"/>
				<path class="st50" d="M250.13,292.24c0.12,0.23,0.27,0.45,0.46,0.64c1.57,1.61,5.8,4.5,14.22,1.49c0.19-0.07,0.36-0.17,0.5-0.3
					v1.73c-0.15,0.13-0.31,0.23-0.5,0.3c-8.42,3.01-12.65,0.12-14.22-1.49c-0.19-0.19-0.33-0.41-0.46-0.64V292.24z"/>
				<path class="st53" d="M260.75,267.17l-4.28-0.97l-6.76-0.88c-1.65-0.22-2.84,2.18-2.96,4.74c-0.23,4.87,3.04,21.45,3.04,21.45
					c0.04,0.67,0.32,1.31,0.79,1.79c1.56,1.6,5.79,4.52,14.23,1.5c0.53-0.19,0.92-0.66,1.01-1.23l3.15-19.6
					c0.16-1.02-0.27-2.05-1.12-2.64L260.75,267.17z"/>
				<path class="st2" d="M266.08,255.56c0,0-0.52,5.85-2.94,8.85c-2.42,3-7.11-1.95-7.8-3.4c-0.7-1.44-1.83-10.49,5.44-10.49
					C265.49,250.53,266.32,253.46,266.08,255.56z"/>
				<path class="st49" d="M259.07,259.21c0,0,2.44-1.73,3.35-4.67c0,0,0.54-0.32,3.51,2.17c0,0,3.36-0.01,1.8-3.55
					c-1.56-3.54-8.01-8.01-11.11-4.48c0,0-5.91-0.98-4.77,6.67c1.51,10.08,6.23,8.42,7.41,6.12
					C260.42,259.21,259.07,259.21,259.07,259.21z"/>
				<path class="st2" d="M260.6,258.02c0,0-0.98-1.93-1.79-0.78c-0.81,1.15,0.17,3.47,1.93,3.77L260.6,258.02z"/>
				<path class="st2" d="M296.01,292.49c0.06-0.02,0.64,0.88,1.07,1.56c0.12,0.2-0.1,0.43-0.3,0.32l-1.22-0.68
					c0,0,0.08,2.01-2.78,0.22l-0.07-1.95L296.01,292.49z"/>
				<path class="st52" d="M293.32,291.9c0,0-17.82-10.13-19-4.21c-1.18,5.92,18.39,6.38,18.39,6.38S293.54,293.5,293.32,291.9z"/>
				<path class="st52" d="M267.84,271.33c0,0,2.68,1.34,6.4,6.64c5.05,7.2,7.38,11.49,2.68,13.08c-1.19,0.4-9.39-8.2-9.39-8.2
					S264.19,275.72,267.84,271.33z"/>
				<path class="st52" d="M261.61,267.68l-0.87-1.48c0,0-1.47-0.9-4.28-0.96l-1.02,0.87C255.44,266.11,255.65,267.13,261.61,267.68z
					"/>
			</g>
		</g>
		
			<linearGradient id="SVGID_36_" gradientUnits="userSpaceOnUse" x1="-726.7095" y1="331.947" x2="-726.7095" y2="241.2448" gradientTransform="matrix(-0.999 -0.0439 0.0439 -0.999 -268.9176 438.0486)">
			<stop  offset="1.860120e-03" style="stop-color:#AC24B9"/>
			<stop  offset="1" style="stop-color:#2E2142"/>
		</linearGradient>
		<path class="st65" d="M454.45,159.17c3.53,9.57,16.66,21.85,27.45,17.25c5.34-2.27,8.24-9.75,4.67-14.32
			c-2.54-3.25-7.1-4.05-10.38-6.55c-2.93-2.23-4.65-5.65-6.88-8.59c-2.22-2.94-5.51-5.63-9.17-5.22
			c-7.67,0.86-7.69,11.44-5.88,16.87C454.32,158.8,454.39,158.99,454.45,159.17z"/>
	</g>
</g>
<g id="Designed_by_Freepik">
</g>
</svg>
